<svg width="18" height="16" viewBox="0 0 18 16" fill="none" xmlns="http://www.w3.org/2000/svg">
<path d="M16.5015 3.74617C16.417 3.29268 16.032 2.9575 15.5814 2.9575H2.09891C1.64825 2.9575 1.2633 3.29268 1.1788 3.74617L0.390137 7.88667V8.8725C0.390137 9.41471 0.812637 9.85833 1.32903 9.85833V14.7875C1.32903 15.3297 1.75153 15.7733 2.26791 15.7733H9.77902C10.2954 15.7733 10.7179 15.3297 10.7179 14.7875V9.85833H14.4735V14.7875C14.4735 15.3297 14.896 15.7733 15.4124 15.7733C15.9287 15.7733 16.3512 15.3297 16.3512 14.7875V9.85833C16.8676 9.85833 17.2901 9.41471 17.2901 8.8725V7.88667L16.5015 3.74617ZM8.84014 13.8017H3.2068V9.85833H8.84014V13.8017ZM2.26791 1.97167H15.4124C15.9287 1.97167 16.3512 1.52804 16.3512 0.985833C16.3512 0.443625 15.9287 0 15.4124 0H2.26791C1.75153 0 1.32903 0.443625 1.32903 0.985833C1.32903 1.52804 1.75153 1.97167 2.26791 1.97167Z" fill="white"/>
</svg>
