<svg width="13" height="21" viewBox="0 0 13 21" fill="none" xmlns="http://www.w3.org/2000/svg">
<path d="M12.3933 1.45804C12.3933 0.652765 11.7406 0 10.9353 0H1.45804C0.652764 0 0 0.652765 0 1.45804V19.319C0 20.1243 0.652764 20.7771 1.45804 20.7771H10.9353C11.7406 20.7771 12.3933 20.1243 12.3933 19.319V1.45804ZM10.4979 18.1526H1.89545V16.3301H10.4979V18.1526ZM5.60237 9.44227C5.60237 8.92846 6.01893 8.51189 6.53274 8.51189C7.04656 8.51189 7.46312 8.92846 7.46312 9.44227C7.46312 9.95608 7.04656 10.3726 6.53274 10.3726C6.01893 10.3726 5.60237 9.95608 5.60237 9.44227ZM8.44467 9.44227C8.44467 8.92846 8.86123 8.51189 9.37505 8.51189C9.88886 8.51189 10.3054 8.92846 10.3054 9.44227C10.3054 9.95608 9.88886 10.3726 9.37505 10.3726C8.86116 10.3726 8.44467 9.95608 8.44467 9.44227ZM10.4979 6.85279H1.89545V4.95734H10.4979V6.85279ZM10.4979 3.4993H1.89545V1.60384H10.4979V3.4993Z" fill="white"/>
</svg>
