<svg width="27" height="24" viewBox="0 0 27 24" fill="none" xmlns="http://www.w3.org/2000/svg">
<path d="M25.0301 2.35762C23.6984 0.837268 21.8509 0 19.8281 0C16.9832 0 15.1821 1.70956 14.1721 3.14374C13.9101 3.51589 13.6872 3.88905 13.5 4.2402C13.3128 3.88905 13.09 3.51589 12.8279 3.14374C11.8179 1.70956 10.0168 0 7.17188 0C5.14909 0 3.30165 0.837322 1.96989 2.35767C0.699627 3.80798 0 5.75036 0 7.82697C0 10.0874 0.877131 12.1899 2.76038 14.4434C4.4435 16.4575 6.86491 18.5336 9.66885 20.9377C10.7137 21.8335 11.7941 22.7599 12.9444 23.7725L12.979 23.803C13.1281 23.9344 13.3141 24 13.5 24C13.6859 24 13.8719 23.9343 14.021 23.803L14.0556 23.7725C15.2059 22.7599 16.2863 21.8336 17.3313 20.9375C20.1351 18.5337 22.5565 16.4576 24.2396 14.4434C26.1229 12.1898 27 10.0874 27 7.82697C27 5.75036 26.3004 3.80798 25.0301 2.35762ZM16.3051 19.7261C15.4044 20.4983 14.4774 21.2931 13.5 22.148C12.5226 21.2932 11.5956 20.4984 10.6947 19.726C5.20726 15.0211 1.58203 11.9129 1.58203 7.82697C1.58203 6.13811 2.14128 4.56948 3.15679 3.41009C4.18395 2.23754 5.60983 1.59177 7.17188 1.59177C9.34079 1.59177 10.7428 2.93617 11.537 4.06399C12.2494 5.0755 12.6211 6.09519 12.7479 6.4866C12.854 6.81424 13.1575 7.03597 13.5 7.03597C13.8425 7.03597 14.146 6.81424 14.2521 6.4866C14.3789 6.09519 14.7506 5.0755 15.463 4.06394C16.2572 2.93617 17.6592 1.59177 19.8281 1.59177C21.3902 1.59177 22.8161 2.23754 23.8432 3.41009C24.8587 4.56948 25.418 6.13811 25.418 7.82697C25.418 11.9129 21.7927 15.0211 16.3051 19.7261Z" fill="white"/>
</svg>
