<!-- icon666.com - MILLIONS vector ICONS FREE --><svg id="Capa_1" enable-background="new 0 0 512 512" viewBox="0 0 512 512" xmlns="http://www.w3.org/2000/svg"><g><circle cx="65" cy="65" r="15" fill="#000000" style="fill: rgb(255, 255, 255);"></circle><circle cx="115" cy="65" r="15" fill="#000000" style="fill: rgb(255, 255, 255);"></circle><circle cx="165" cy="65" r="15" fill="#000000" style="fill: rgb(255, 255, 255);"></circle><path d="m135 190h200c8.284 0 15-6.716 15-15s-6.716-15-15-15h-200c-8.284 0-15 6.716-15 15s6.716 15 15 15z" fill="#000000" style="fill: rgb(255, 255, 255);"></path><circle cx="75" cy="175" r="15" fill="#000000" style="fill: rgb(255, 255, 255);"></circle><path d="m135 250h60c8.284 0 15-6.716 15-15s-6.716-15-15-15h-60c-8.284 0-15 6.716-15 15s6.716 15 15 15z" fill="#000000" style="fill: rgb(255, 255, 255);"></path><circle cx="75" cy="235" r="15" fill="#000000" style="fill: rgb(255, 255, 255);"></circle><path d="m135 310h60c8.284 0 15-6.716 15-15s-6.716-15-15-15h-60c-8.284 0-15 6.716-15 15s6.716 15 15 15z" fill="#000000" style="fill: rgb(255, 255, 255);"></path><circle cx="75" cy="295" r="15" fill="#000000" style="fill: rgb(255, 255, 255);"></circle><path d="m225 340h-90c-8.284 0-15 6.716-15 15s6.716 15 15 15h90c8.284 0 15-6.716 15-15s-6.716-15-15-15z" fill="#000000" style="fill: rgb(255, 255, 255);"></path><circle cx="75" cy="355" r="15" fill="#000000" style="fill: rgb(255, 255, 255);"></circle><path d="m497 220h-87v-175c0-24.813-20.187-45-45-45h-320c-24.813 0-45 20.187-45 45v340c0 24.813 20.187 45 45 45h285v37c0 5.752 3.289 10.997 8.467 13.502l62 30c2.069 1.001 4.304 1.498 6.532 1.498 2.776 0 5.543-.77 7.97-2.292 4.375-2.743 7.031-7.544 7.031-12.708v-96.244l86.149-95.722c2.479-2.754 3.851-6.328 3.851-10.034v-60c0-8.284-6.716-15-15-15zm-15 60h-212v-30h212zm-81.681 100h-48.639l-63-70h174.64zm-20.319-335v55h-150v-70h135c8.271 0 15 6.729 15 15zm-350 0c0-8.271 6.729-15 15-15h155v70h-170zm0 340v-255h350v90h-125c-8.284 0-15 6.716-15 15v60c0 3.706 1.372 7.28 3.851 10.035l85.468 94.965h-284.319c-8.271 0-15-6.729-15-15zm362 88.078-32-15.484v-47.594h32z" fill="#000000" style="fill: rgb(255, 255, 255);"></path></g></svg>