<!-- icon666.com - MILLIONS vector ICONS FREE --><svg viewBox="0 0 512 512" xmlns="http://www.w3.org/2000/svg"><path d="m500.399 137.506c-12.608-67.263-57.171-111.878-125.481-125.629-17.739-3.571-64.757-11.877-118.104-11.877l-1.019.001c-51.713.105-99.926 8.327-118.256 11.857-68.253 13.146-112.849 57.768-125.574 125.648-4.449 23.732-11.919 70.714-11.965 118.726-.049 51.654 8.364 100.146 11.983 118.6 13.241 67.5 57.807 112.084 125.488 125.539 17.583 3.497 64.314 11.629 118.347 11.629 56.898 0 105.548-8.905 119.1-11.634 68.31-13.75 112.873-58.366 125.481-125.629 4.332-23.116 11.601-69.278 11.601-118.736 0-49.246-7.269-95.379-11.601-118.495zm-130.005 340.386c-13.028 2.623-59.797 11.183-114.576 11.183-51.996 0-96.958-7.825-113.876-11.188-11.377-2.262-21.933-5.488-31.66-9.627-.905-7.736-1.387-14.989-1.387-21.567 0-73.368 54.993-117.168 147.104-117.168s147.104 43.8 147.104 117.168c0 6.63-.476 13.921-1.397 21.724-9.623 4.041-20.067 7.211-31.312 9.475zm107.472-107.379c-6.983 37.256-24.699 65.85-52.066 84.769.14-2.941.23-5.822.23-8.59 0-44.819-17.685-81.584-51.144-106.321-29.884-22.093-70.994-33.772-118.886-33.772s-89.002 11.679-118.886 33.772c-33.458 24.737-51.144 61.502-51.144 106.321 0 2.656.084 5.419.213 8.235-26.84-18.892-44.423-47.393-51.704-84.509-3.489-17.791-11.601-64.53-11.554-114.163.044-46.168 7.27-91.571 11.573-114.525 10.87-57.99 49.005-96.118 107.377-107.36 17.689-3.407 64.207-11.341 113.966-11.443l.972-.001c51.285 0 96.515 7.991 113.58 11.425 59.382 11.954 96.545 49.085 107.472 107.379 4.187 22.334 11.209 66.879 11.209 114.271.001 49.381-7.837 96.533-11.208 114.512z" fill="#000000" style="fill: rgb(255, 255, 255);"></path><path d="m256 290.379c-56.885 0-103.164-46.28-103.164-103.165s46.279-103.165 103.164-103.165c56.884 0 103.164 46.279 103.164 103.164s-46.28 103.166-103.164 103.166zm0-183.404c-44.243 0-80.239 35.995-80.239 80.239s35.995 80.24 80.239 80.24 80.239-35.995 80.239-80.24c0-44.244-35.994-80.239-80.239-80.239z" fill="#000000" style="fill: rgb(255, 255, 255);"></path></svg>