<svg width="20" height="20" viewBox="0 0 20 20" fill="none" xmlns="http://www.w3.org/2000/svg">
<path d="M19.8372 4.60714L15.3929 0.16276C15.2887 0.0585938 15.1473 0 15 0H2.77771C1.2443 0.00142416 0.00142416 1.2443 0 2.77771V17.2223C0.00142416 18.7557 1.2443 19.9986 2.77771 20H17.2223C18.7557 19.9986 19.9986 18.7557 20 17.2223V5C20 4.8527 19.9414 4.7113 19.8372 4.60714ZM12.2223 1.11104V4.44438H4.44438V1.11104H12.2223ZM4.44438 18.889V10H15.5556V18.889H4.44438ZM18.889 17.2223C18.8879 18.1423 18.1423 18.8879 17.2223 18.889H16.6667V9.44438C16.6667 9.13757 16.4178 8.88896 16.111 8.88896H3.88896C3.58215 8.88896 3.33333 9.13757 3.33333 9.44438V18.889H2.77771C1.85771 18.8879 1.11206 18.1423 1.11104 17.2223V2.77771C1.11206 1.85771 1.85771 1.11206 2.77771 1.11104H3.33333V5C3.33333 5.3068 3.58215 5.55562 3.88896 5.55562H12.7777C13.0845 5.55562 13.3333 5.3068 13.3333 5V1.11104H14.7699L18.889 5.2301V17.2223Z" fill="white"/>
<path d="M12.7777 12.2227H7.22225C6.91545 12.2227 6.66663 12.4713 6.66663 12.7781C6.66663 13.0849 6.91545 13.3337 7.22225 13.3337H12.7777C13.0845 13.3337 13.3333 13.0849 13.3333 12.7781C13.3333 12.4713 13.0845 12.2227 12.7777 12.2227Z" fill="white"/>
<path d="M12.7777 15.5557H7.22225C6.91545 15.5557 6.66663 15.8043 6.66663 16.1111C6.66663 16.4179 6.91545 16.6667 7.22225 16.6667H12.7777C13.0845 16.6667 13.3333 16.4179 13.3333 16.1111C13.3333 15.8043 13.0845 15.5557 12.7777 15.5557Z" fill="white"/>
</svg>
