<svg width="17" height="17" viewBox="0 0 17 17" fill="none" xmlns="http://www.w3.org/2000/svg">
<path d="M16.7207 15.38L13.5106 12.1794C14.5464 10.8599 15.1083 9.23054 15.1062 7.55312C15.1062 6.05926 14.6633 4.59894 13.8333 3.35684C13.0034 2.11473 11.8237 1.14663 10.4436 0.57495C9.06343 0.00327262 7.54475 -0.146304 6.07958 0.145134C4.61442 0.436573 3.26858 1.15594 2.21226 2.21226C1.15594 3.26858 0.436573 4.61442 0.145134 6.07958C-0.146304 7.54475 0.00327262 9.06343 0.57495 10.4436C1.14663 11.8237 2.11473 13.0034 3.35684 13.8333C4.59894 14.6633 6.05926 15.1062 7.55312 15.1062C9.23054 15.1083 10.8599 14.5464 12.1794 13.5106L15.38 16.7207C15.4678 16.8092 15.5722 16.8795 15.6873 16.9274C15.8023 16.9753 15.9257 17 16.0504 17C16.175 17 16.2984 16.9753 16.4135 16.9274C16.5285 16.8795 16.633 16.8092 16.7207 16.7207C16.8092 16.633 16.8795 16.5285 16.9274 16.4135C16.9753 16.2984 17 16.175 17 16.0504C17 15.9257 16.9753 15.8023 16.9274 15.6873C16.8795 15.5722 16.8092 15.4678 16.7207 15.38ZM1.88828 7.55312C1.88828 6.43272 2.22052 5.33749 2.84298 4.40591C3.46544 3.47433 4.35017 2.74825 5.38528 2.31949C6.4204 1.89074 7.55941 1.77855 8.65828 1.99713C9.75715 2.21571 10.7665 2.75523 11.5588 3.54748C12.351 4.33972 12.8905 5.3491 13.1091 6.44797C13.3277 7.54684 13.2155 8.68585 12.7868 9.72097C12.358 10.7561 11.6319 11.6408 10.7003 12.2633C9.76876 12.8857 8.67352 13.218 7.55312 13.218C6.05072 13.218 4.60984 12.6211 3.54748 11.5588C2.48511 10.4964 1.88828 9.05553 1.88828 7.55312Z" fill="white"/>
</svg>
