<svg width="27" height="27" viewBox="0 0 27 27" fill="none" xmlns="http://www.w3.org/2000/svg">
<path d="M26.6028 6.00063C26.3618 5.55158 26.0169 5.17736 25.6014 4.91449C25.186 4.65161 24.7144 4.50904 24.2325 4.5007H6.38578L5.5771 1.11083C5.49539 0.783605 5.31311 0.495775 5.05993 0.294226C4.80675 0.0926756 4.4976 -0.0107197 4.18282 0.000879684H1.39427C1.02449 0.000879684 0.669851 0.158908 0.408374 0.440201C0.146896 0.721494 0 1.10301 0 1.50082C0 1.89863 0.146896 2.28014 0.408374 2.56143C0.669851 2.84273 1.02449 3.00076 1.39427 3.00076H3.12317L6.97137 18.3901C7.05308 18.7174 7.23536 19.0052 7.48854 19.2067C7.74172 19.4083 8.05087 19.5117 8.36565 19.5001H20.9141C21.1716 19.4992 21.4238 19.4217 21.6429 19.2761C21.8619 19.1305 22.0392 18.9225 22.155 18.6751L26.7282 8.83552C26.9265 8.38856 27.0187 7.89576 26.9968 7.4011C26.9749 6.90644 26.8396 6.42531 26.6028 6.00063Z" fill="white"/>
<path d="M7.66856 26.9998C8.82362 26.9998 9.75997 25.9925 9.75997 24.7499C9.75997 23.5073 8.82362 22.5 7.66856 22.5C6.51351 22.5 5.57715 23.5073 5.57715 24.7499C5.57715 25.9925 6.51351 26.9998 7.66856 26.9998Z" fill="white"/>
<path d="M21.6114 26.9998C22.7665 26.9998 23.7028 25.9925 23.7028 24.7499C23.7028 23.5073 22.7665 22.5 21.6114 22.5C20.4564 22.5 19.52 23.5073 19.52 24.7499C19.52 25.9925 20.4564 26.9998 21.6114 26.9998Z" fill="white"/>
</svg>
