<svg width="50" height="20" viewBox="0 0 50 20" fill="none" xmlns="http://www.w3.org/2000/svg">
<path d="M5.83333 13.333H10.8333C11.2935 13.333 11.6667 12.9599 11.6667 12.4997V4.16634C11.6667 3.70614 11.2935 3.33301 10.8333 3.33301H5.83333C5.37313 3.33301 5 3.70614 5 4.16634V12.4997C5 12.9599 5.37313 13.333 5.83333 13.333ZM6.66667 4.99967H10V11.6663H6.66667V4.99967Z" fill="white"/>
<path d="M14.1666 13.333H19.1666C19.6268 13.333 19.9999 12.9599 19.9999 12.4997V4.16634C19.9999 3.70614 19.6268 3.33301 19.1666 3.33301H14.1666C13.7064 3.33301 13.3333 3.70614 13.3333 4.16634V12.4997C13.3333 12.9599 13.7064 13.333 14.1666 13.333ZM14.9999 4.99967H18.3333V11.6663H14.9999V4.99967Z" fill="white"/>
<path d="M22.5001 13.333H27.5001C27.9603 13.333 28.3334 12.9599 28.3334 12.4997V4.16634C28.3334 3.70614 27.9603 3.33301 27.5001 3.33301H22.5001C22.0399 3.33301 21.6667 3.70614 21.6667 4.16634V12.4997C21.6667 12.9599 22.0399 13.333 22.5001 13.333ZM23.3334 4.99967H26.6667V11.6663H23.3334V4.99967Z" fill="white"/>
<path d="M30.8333 13.333H35.8333C36.2935 13.333 36.6667 12.9599 36.6667 12.4997V4.16634C36.6667 3.70614 36.2935 3.33301 35.8333 3.33301H30.8333C30.3731 3.33301 30 3.70614 30 4.16634V12.4997C30 12.9599 30.3731 13.333 30.8333 13.333ZM31.6667 4.99967H35V11.6663H31.6667V4.99967Z" fill="white"/>
<path d="M39.1666 13.333H44.1666C44.6268 13.333 44.9999 12.9599 44.9999 12.4997V4.16634C44.9999 3.70614 44.6268 3.33301 44.1666 3.33301H39.1666C38.7064 3.33301 38.3333 3.70614 38.3333 4.16634V12.4997C38.3333 12.9599 38.7064 13.333 39.1666 13.333ZM39.9999 4.99967H43.3333V11.6663H39.9999V4.99967Z" fill="white"/>
<path d="M49.5874 4.27734C49.8429 4.12801 50 3.85417 50 3.55835V0.833333C50 0.373128 49.6269 0 49.1667 0H0.833333C0.373128 0 0 0.373128 0 0.833333V3.55835C0.000813802 3.85498 0.159505 4.12923 0.416667 4.27734C0.675456 4.42627 0.834554 4.70174 0.834554 5C0.834554 5.29826 0.675456 5.57373 0.416667 5.72266C0.159505 5.87077 0.000813802 6.14502 0 6.44165V19.1667C0 19.6269 0.373128 20 0.833333 20H49.1667C49.6269 20 50 19.6269 50 19.1667V6.44165C50 6.14583 49.8429 5.87199 49.5874 5.72266C49.329 5.57373 49.1695 5.29826 49.1695 5C49.1695 4.70174 49.329 4.42627 49.5874 4.27734ZM1.66667 3.13761V1.66667H48.3333V3.13761C47.8035 3.61165 47.5008 4.28914 47.5008 5C47.5008 5.71086 47.8035 6.38835 48.3333 6.86239V15H1.66667V6.86239C2.19645 6.38835 2.49919 5.71086 2.49919 5C2.49919 4.28914 2.19645 3.61165 1.66667 3.13761ZM7.5 16.6667V18.3333H5.83333V16.6667H7.5ZM9.16667 16.6667H10.8333V18.3333H9.16667V16.6667ZM12.5 16.6667H14.1667V18.3333H12.5V16.6667ZM15.8333 16.6667H17.5V18.3333H15.8333V16.6667ZM19.1667 16.6667H20.8333V18.3333H19.1667V16.6667ZM22.5 16.6667H24.1667V18.3333H22.5V16.6667ZM25.8333 16.6667H27.5V18.3333H25.8333V16.6667ZM29.1667 16.6667H30.8333V18.3333H29.1667V16.6667ZM32.5 16.6667H34.1667V18.3333H32.5V16.6667ZM35.8333 16.6667H37.5V18.3333H35.8333V16.6667ZM39.1667 16.6667H40.8333V18.3333H39.1667V16.6667ZM42.5 16.6667H44.1667V18.3333H42.5V16.6667ZM1.66667 16.6667H4.16667V18.3333H1.66667V16.6667ZM45.8333 18.3333V16.6667H48.3333V18.3333H45.8333Z" fill="white"/>
</svg>
